<?xml version="1.0" encoding="iso-8859-1"?>
<!DOCTYPE svg PUBLIC "-//W3C//DTD SVG 1.1//EN" "http://www.w3.org/Graphics/SVG/1.1/DTD/svg11.dtd">
<svg 
 version="1.1" xmlns="http://www.w3.org/2000/svg" xmlns:xlink="http://www.w3.org/1999/xlink" x="0px" y="0px" width="512px"
	 height="512px" viewBox="0 0 512 512" enable-background="new 0 0 512 512" xml:space="preserve"
><g id="2020da7681f0d538108a21c60201b54b"><g></g><path display="inline" d="M337.619,256.886c-2.523,0-5.019,0.133-7.485,0.341c-18.181-51.856-67.525-89.055-125.587-89.055
		c-70.516,0-128.187,54.859-132.749,124.22c-0.112,0-0.216-0.017-0.324-0.017c-39.198,0-70.974,31.775-70.974,70.969
		c0,39.198,31.775,70.974,70.974,70.974h266.146c48.996,0,88.714-39.718,88.714-88.714
		C426.333,296.604,386.615,256.886,337.619,256.886z M266.646,340.635c-19.282,0-40.454,21.171-40.454,40.454
		c0,7.057-5.718,12.774-12.775,12.774c-7.057,0-12.775-5.718-12.775-12.774c0-33.311,32.694-66.005,66.004-66.005
		c7.058,0,12.775,5.719,12.775,12.775S273.703,340.635,266.646,340.635z M511.5,237.37c0,40.562-30.27,73.976-69.435,79.087
		c-2.915-8.8-6.887-17.125-11.811-24.794h1.401c29.938,0,54.294-24.356,54.294-54.293c0-29.938-24.356-54.294-54.294-54.294
		c-1.389,0-2.878,0.07-4.545,0.212l-19.749,1.701l-6.554-18.705c-13.221-37.714-48.954-63.052-88.918-63.052
		c-36.079,0-67.734,20.605-83.516,50.871c-7.806-1.223-15.757-1.9-23.829-1.9c-1.189,0-2.366,0.055-3.551,0.079
		c17.828-43.748,60.739-74.6,110.896-74.6c52.256,0,96.669,33.476,113.029,80.151c2.221-0.191,4.466-0.308,6.736-0.308
		C475.753,157.526,511.5,193.272,511.5,237.37z"></path></g></svg>