<?xml version="1.0" encoding="iso-8859-1"?>
<!DOCTYPE svg PUBLIC "-//W3C//DTD SVG 1.1//EN" "http://www.w3.org/Graphics/SVG/1.1/DTD/svg11.dtd">
<svg 
 version="1.1" xmlns="http://www.w3.org/2000/svg" xmlns:xlink="http://www.w3.org/1999/xlink" x="0px" y="0px" width="512px"
	 height="512px" viewBox="0 0 512 512" enable-background="new 0 0 512 512" xml:space="preserve"
><g id="e6c6b53d3c8160b22dad35a0f70a50f8"><g></g><path display="inline" fill-rule="evenodd" clip-rule="evenodd" d="M434.8,299.465c41.702,0,75.564,30.499,76.7,68.508H162.316
		c4.038-19.745,25.471-34.832,51.383-34.832c10.396,0,20.057,2.454,28.19,6.637c10.177-9.443,30.936-16.446,55.995-18.376
		c6.117-26.761,32.42-46.884,63.945-46.884c23.034,0,43.236,10.767,54.859,26.993C422.508,300.222,428.55,299.465,434.8,299.465z
		 M256,64.375c105.664,0,191.625,85.965,191.625,191.625c0,1.186-0.066,2.354-0.092,3.535c7.286,0.225,14.381,1.105,21.229,2.582
		c0.059-2.038,0.154-4.063,0.154-6.117c0-117.591-95.326-212.917-212.917-212.917c-50.601,0-97.052,17.685-133.584,47.166
		c8.325,1.78,16.248,4.849,23.6,8.975C177.171,77.3,215.093,64.375,256,64.375z M256,447.625
		C150.336,447.625,64.375,361.66,64.375,256H43.083c0,117.591,95.326,212.917,212.917,212.917
		c59.546,0,113.357-24.474,151.998-63.875h-31.742C343.35,431.648,301.515,447.625,256,447.625z M243.824,184.465
		c-8.496,0-16.389,2.528-23.034,6.841c-8.313-9.735-25.276-16.954-45.752-18.942c-4.995-27.588-26.49-48.33-52.248-48.33
		c-18.822,0-35.327,11.104-44.825,27.829c-4.753-1.331-9.689-2.113-14.796-2.113c-34.071,0-61.742,31.443-62.669,70.625h285.309
		C282.515,200.018,264.995,184.465,243.824,184.465z"></path></g></svg>