<?xml version="1.0" encoding="iso-8859-1"?>
<!DOCTYPE svg PUBLIC "-//W3C//DTD SVG 1.1//EN" "http://www.w3.org/Graphics/SVG/1.1/DTD/svg11.dtd">
<svg 
 version="1.1" xmlns="http://www.w3.org/2000/svg" xmlns:xlink="http://www.w3.org/1999/xlink" x="0px" y="0px" width="512px"
	 height="512px" viewBox="0 0 512 512" enable-background="new 0 0 512 512" xml:space="preserve"
><g id="2020da7681f0d538108a21c602017330"><g></g><path display="inline" d="M230.45,469.981c0,14.112-11.438,25.55-25.55,25.55s-25.55-11.438-25.55-25.55
		s11.438-51.101,25.55-51.101S230.45,455.869,230.45,469.981z M307.1,367.781c-14.112,0-25.55,36.987-25.55,51.1
		s11.438,25.551,25.55,25.551s25.551-11.438,25.551-25.551S321.212,367.781,307.1,367.781z M511.5,229.387
		c0,58.794-47.662,106.457-106.457,106.457H85.668c-47.038,0-85.168-38.131-85.168-85.168c0-47.033,38.13-85.164,85.168-85.164
		c0.129,0,0.254,0.02,0.389,0.02C91.532,82.3,160.736,16.469,245.355,16.469c69.674,0,128.888,44.638,150.705,106.866
		c2.96-0.25,5.954-0.409,8.982-0.409C463.838,122.925,511.5,170.587,511.5,229.387z M335.205,208.094
		c0-8.468-6.861-15.33-15.33-15.33c-39.972,0-79.205,39.233-79.205,79.205c0,8.469,6.861,15.33,15.33,15.33s15.33-6.861,15.33-15.33
		c0-23.14,25.405-48.545,48.545-48.545C328.344,223.424,335.205,216.562,335.205,208.094z"></path></g></svg>